<svg width="72" height="72" viewBox="0 0 72 72" fill="none" xmlns="http://www.w3.org/2000/svg">
<g filter="url(#filter0_dd_34_305)">
<path d="M12 12C12 6.47715 16.4772 2 22 2H50C55.5229 2 60 6.47715 60 12V40C60 45.5229 55.5228 50 50 50H22C16.4772 50 12 45.5228 12 40V12Z" fill="url(#paint0_linear_34_305)" shape-rendering="crispEdges"/>
<path d="M26.0026 32.0004C24.0026 33.6804 23.3359 38.6671 23.3359 38.6671C23.3359 38.6671 28.3226 38.0004 30.0026 36.0004C30.9493 34.8804 30.9359 33.1604 29.8826 32.1204C29.3643 31.6258 28.6817 31.3399 27.9656 31.3178C27.2495 31.2956 26.5504 31.5387 26.0026 32.0004Z" stroke="white" stroke-width="2.66667" stroke-linecap="round" stroke-linejoin="round"/>
<path d="M36 29.9997L32 25.9997C32.7095 24.1589 33.6029 22.3944 34.6667 20.733C36.2202 18.249 38.3835 16.2037 40.9507 14.7918C43.5178 13.3799 46.4036 12.6482 49.3333 12.6663C49.3333 16.293 48.2933 22.6663 41.3333 27.333C39.6492 28.398 37.8625 29.2913 36 29.9997Z" stroke="white" stroke-width="2.66667" stroke-linecap="round" stroke-linejoin="round"/>
<path d="M32.0026 25.9997H25.3359C25.3359 25.9997 26.0693 21.9597 28.0026 20.6664C30.1626 19.2264 34.6693 20.6664 34.6693 20.6664" stroke="white" stroke-width="2.66667" stroke-linecap="round" stroke-linejoin="round"/>
<path d="M36 29.9997V36.6663C36 36.6663 40.04 35.933 41.3333 33.9997C42.7733 31.8397 41.3333 27.333 41.3333 27.333" stroke="white" stroke-width="2.66667" stroke-linecap="round" stroke-linejoin="round"/>
</g>
<defs>
<filter id="filter0_dd_34_305" x="0" y="0" width="72" height="72" filterUnits="userSpaceOnUse" color-interpolation-filters="sRGB">
<feFlood flood-opacity="0" result="BackgroundImageFix"/>
<feColorMatrix in="SourceAlpha" type="matrix" values="0 0 0 0 0 0 0 0 0 0 0 0 0 0 0 0 0 0 127 0" result="hardAlpha"/>
<feMorphology radius="4" operator="erode" in="SourceAlpha" result="effect1_dropShadow_34_305"/>
<feOffset dy="4"/>
<feGaussianBlur stdDeviation="3"/>
<feComposite in2="hardAlpha" operator="out"/>
<feColorMatrix type="matrix" values="0 0 0 0 0 0 0 0 0 0 0 0 0 0 0 0 0 0 0.1 0"/>
<feBlend mode="normal" in2="BackgroundImageFix" result="effect1_dropShadow_34_305"/>
<feColorMatrix in="SourceAlpha" type="matrix" values="0 0 0 0 0 0 0 0 0 0 0 0 0 0 0 0 0 0 127 0" result="hardAlpha"/>
<feMorphology radius="3" operator="erode" in="SourceAlpha" result="effect2_dropShadow_34_305"/>
<feOffset dy="10"/>
<feGaussianBlur stdDeviation="7.5"/>
<feComposite in2="hardAlpha" operator="out"/>
<feColorMatrix type="matrix" values="0 0 0 0 0 0 0 0 0 0 0 0 0 0 0 0 0 0 0.1 0"/>
<feBlend mode="normal" in2="effect1_dropShadow_34_305" result="effect2_dropShadow_34_305"/>
<feBlend mode="normal" in="SourceGraphic" in2="effect2_dropShadow_34_305" result="shape"/>
</filter>
<linearGradient id="paint0_linear_34_305" x1="12" y1="2" x2="60" y2="50" gradientUnits="userSpaceOnUse">
<stop stop-color="#E60076"/>
<stop offset="1" stop-color="#F54900"/>
</linearGradient>
</defs>
</svg>
