<svg width="20" height="20" viewBox="0 0 20 20" fill="none" xmlns="http://www.w3.org/2000/svg">
<path d="M4.16406 4.16618C4.16398 3.87293 4.24127 3.58484 4.38813 3.33101C4.535 3.07718 4.74624 2.86659 5.00052 2.72051C5.25481 2.57444 5.54313 2.49804 5.83639 2.49903C6.12964 2.50003 6.41744 2.57838 6.67073 2.72618L16.6682 8.55785C16.9205 8.70425 17.13 8.91431 17.2757 9.16702C17.4214 9.41974 17.4982 9.70626 17.4984 9.99797C17.4987 10.2897 17.4224 10.5763 17.2771 10.8293C17.1319 11.0823 16.9228 11.2927 16.6707 11.4395L6.67073 17.2729C6.41744 17.4207 6.12964 17.499 5.83639 17.5C5.54313 17.501 5.25481 17.4246 5.00052 17.2785C4.74624 17.1324 4.535 16.9219 4.38813 16.668C4.24127 16.4142 4.16398 16.1261 4.16406 15.8329V4.16618Z" stroke="white" stroke-width="1.66667" stroke-linecap="round" stroke-linejoin="round"/>
</svg>
