<svg width="72" height="72" viewBox="0 0 72 72" fill="none" xmlns="http://www.w3.org/2000/svg">
<g filter="url(#filter0_dd_34_240)">
<path d="M12 12C12 6.47715 16.4772 2 22 2H50C55.5229 2 60 6.47715 60 12V40C60 45.5229 55.5228 50 50 50H22C16.4772 50 12 45.5228 12 40V12Z" fill="url(#paint0_linear_34_240)" shape-rendering="crispEdges"/>
<path d="M34.6899 13.7516C34.7471 13.4457 34.9094 13.1695 35.1487 12.9707C35.3881 12.7719 35.6894 12.6631 36.0006 12.6631C36.3117 12.6631 36.6131 12.7719 36.8525 12.9707C37.0918 13.1695 37.2541 13.4457 37.3113 13.7516L38.7126 21.1623C38.8121 21.6891 39.0682 22.1738 39.4473 22.5529C39.8264 22.932 40.3111 23.1881 40.8379 23.2876L48.2486 24.6889C48.5545 24.7461 48.8307 24.9084 49.0295 25.1477C49.2283 25.3871 49.3371 25.6885 49.3371 25.9996C49.3371 26.3108 49.2283 26.6121 49.0295 26.8515C48.8307 27.0908 48.5545 27.2531 48.2486 27.3103L40.8379 28.7116C40.3111 28.8111 39.8264 29.0672 39.4473 29.4463C39.0682 29.8255 38.8121 30.3101 38.7126 30.8369L37.3113 38.2476C37.2541 38.5535 37.0918 38.8297 36.8525 39.0285C36.6131 39.2273 36.3117 39.3361 36.0006 39.3361C35.6894 39.3361 35.3881 39.2273 35.1487 39.0285C34.9094 38.8297 34.7471 38.5535 34.6899 38.2476L33.2886 30.8369C33.1891 30.3101 32.933 29.8255 32.5539 29.4463C32.1747 29.0672 31.6901 28.8111 31.1633 28.7116L23.7526 27.3103C23.4467 27.2531 23.1705 27.0908 22.9717 26.8515C22.7729 26.6121 22.6641 26.3108 22.6641 25.9996C22.6641 25.6885 22.7729 25.3871 22.9717 25.1477C23.1705 24.9084 23.4467 24.7461 23.7526 24.6889L31.1633 23.2876C31.6901 23.1881 32.1747 22.932 32.5539 22.5529C32.933 22.1738 33.1891 21.6891 33.2886 21.1623L34.6899 13.7516Z" stroke="white" stroke-width="2.66667" stroke-linecap="round" stroke-linejoin="round"/>
<path d="M46.6641 12.667V18.0003" stroke="white" stroke-width="2.66667" stroke-linecap="round" stroke-linejoin="round"/>
<path d="M49.3333 15.333H44" stroke="white" stroke-width="2.66667" stroke-linecap="round" stroke-linejoin="round"/>
<path d="M25.3307 39.3333C26.8035 39.3333 27.9974 38.1394 27.9974 36.6667C27.9974 35.1939 26.8035 34 25.3307 34C23.858 34 22.6641 35.1939 22.6641 36.6667C22.6641 38.1394 23.858 39.3333 25.3307 39.3333Z" stroke="white" stroke-width="2.66667" stroke-linecap="round" stroke-linejoin="round"/>
</g>
<defs>
<filter id="filter0_dd_34_240" x="0" y="0" width="72" height="72" filterUnits="userSpaceOnUse" color-interpolation-filters="sRGB">
<feFlood flood-opacity="0" result="BackgroundImageFix"/>
<feColorMatrix in="SourceAlpha" type="matrix" values="0 0 0 0 0 0 0 0 0 0 0 0 0 0 0 0 0 0 127 0" result="hardAlpha"/>
<feMorphology radius="4" operator="erode" in="SourceAlpha" result="effect1_dropShadow_34_240"/>
<feOffset dy="4"/>
<feGaussianBlur stdDeviation="3"/>
<feComposite in2="hardAlpha" operator="out"/>
<feColorMatrix type="matrix" values="0 0 0 0 0 0 0 0 0 0 0 0 0 0 0 0 0 0 0.1 0"/>
<feBlend mode="normal" in2="BackgroundImageFix" result="effect1_dropShadow_34_240"/>
<feColorMatrix in="SourceAlpha" type="matrix" values="0 0 0 0 0 0 0 0 0 0 0 0 0 0 0 0 0 0 127 0" result="hardAlpha"/>
<feMorphology radius="3" operator="erode" in="SourceAlpha" result="effect2_dropShadow_34_240"/>
<feOffset dy="10"/>
<feGaussianBlur stdDeviation="7.5"/>
<feComposite in2="hardAlpha" operator="out"/>
<feColorMatrix type="matrix" values="0 0 0 0 0 0 0 0 0 0 0 0 0 0 0 0 0 0 0.1 0"/>
<feBlend mode="normal" in2="effect1_dropShadow_34_240" result="effect2_dropShadow_34_240"/>
<feBlend mode="normal" in="SourceGraphic" in2="effect2_dropShadow_34_240" result="shape"/>
</filter>
<linearGradient id="paint0_linear_34_240" x1="12" y1="2" x2="60" y2="50" gradientUnits="userSpaceOnUse">
<stop stop-color="#9810FA"/>
<stop offset="1" stop-color="#E60076"/>
</linearGradient>
</defs>
</svg>
