<svg width="64" height="64" viewBox="0 0 64 64" fill="none" xmlns="http://www.w3.org/2000/svg">
<g filter="url(#filter0_dd_41_2178)">
<path d="M12 12C12 6.47716 16.4772 2 22 2H41.9997C47.5225 2 51.9997 6.47715 51.9997 12V31.9997C51.9997 37.5225 47.5225 41.9997 41.9997 41.9997H22C16.4772 41.9997 12 37.5225 12 31.9997V12Z" fill="url(#paint0_linear_41_2178)" shape-rendering="crispEdges"/>
<path d="M25.9922 21H29.9922" stroke="white" stroke-width="1.9998" stroke-linecap="round" stroke-linejoin="round"/>
<path d="M27.9922 19V23" stroke="white" stroke-width="1.9998" stroke-linecap="round" stroke-linejoin="round"/>
<path d="M34.9922 22H35.0022" stroke="white" stroke-width="1.9998" stroke-linecap="round" stroke-linejoin="round"/>
<path d="M37.9922 20H38.0022" stroke="white" stroke-width="1.9998" stroke-linecap="round" stroke-linejoin="round"/>
<path d="M37.3106 15H26.6717C25.6821 15.0002 24.7277 15.3673 23.993 16.0304C23.2583 16.6934 22.7956 17.6052 22.6941 18.5896C22.6881 18.6416 22.6841 18.6906 22.6771 18.7416C22.5961 19.4156 21.9922 24.455 21.9922 25.9989C21.9922 26.7945 22.3082 27.5574 22.8708 28.12C23.4333 28.6826 24.1963 28.9986 24.9919 28.9986C25.9918 28.9986 26.4917 28.4986 26.9917 27.9987L28.4055 26.5848C28.7805 26.2098 29.2891 25.999 29.8194 25.9989H34.163C34.6933 25.999 35.2019 26.2098 35.5768 26.5848L36.9907 27.9987C37.4906 28.4986 37.9906 28.9986 38.9905 28.9986C39.786 28.9986 40.549 28.6826 41.1116 28.12C41.6741 27.5574 41.9902 26.7945 41.9902 25.9989C41.9902 24.454 41.3862 19.4156 41.3052 18.7416C41.2982 18.6916 41.2942 18.6416 41.2882 18.5906C41.187 17.606 40.7244 16.694 39.9897 16.0307C39.255 15.3675 38.3004 15.0003 37.3106 15Z" stroke="white" stroke-width="1.9998" stroke-linecap="round" stroke-linejoin="round"/>
</g>
<defs>
<filter id="filter0_dd_41_2178" x="0" y="0" width="64" height="64" filterUnits="userSpaceOnUse" color-interpolation-filters="sRGB">
<feFlood flood-opacity="0" result="BackgroundImageFix"/>
<feColorMatrix in="SourceAlpha" type="matrix" values="0 0 0 0 0 0 0 0 0 0 0 0 0 0 0 0 0 0 127 0" result="hardAlpha"/>
<feMorphology radius="4" operator="erode" in="SourceAlpha" result="effect1_dropShadow_41_2178"/>
<feOffset dy="4"/>
<feGaussianBlur stdDeviation="3"/>
<feComposite in2="hardAlpha" operator="out"/>
<feColorMatrix type="matrix" values="0 0 0 0 0.677909 0 0 0 0 0.275943 0 0 0 0 1 0 0 0 0.5 0"/>
<feBlend mode="normal" in2="BackgroundImageFix" result="effect1_dropShadow_41_2178"/>
<feColorMatrix in="SourceAlpha" type="matrix" values="0 0 0 0 0 0 0 0 0 0 0 0 0 0 0 0 0 0 127 0" result="hardAlpha"/>
<feMorphology radius="3" operator="erode" in="SourceAlpha" result="effect2_dropShadow_41_2178"/>
<feOffset dy="10"/>
<feGaussianBlur stdDeviation="7.5"/>
<feComposite in2="hardAlpha" operator="out"/>
<feColorMatrix type="matrix" values="0 0 0 0 0.677909 0 0 0 0 0.275943 0 0 0 0 1 0 0 0 0.5 0"/>
<feBlend mode="normal" in2="effect1_dropShadow_41_2178" result="effect2_dropShadow_41_2178"/>
<feBlend mode="normal" in="SourceGraphic" in2="effect2_dropShadow_41_2178" result="shape"/>
</filter>
<linearGradient id="paint0_linear_41_2178" x1="12" y1="2" x2="51.9997" y2="41.9997" gradientUnits="userSpaceOnUse">
<stop stop-color="#9810FA"/>
<stop offset="1" stop-color="#0092B8"/>
</linearGradient>
</defs>
</svg>
